<svg width="256" height="256" viewBox="0 0 256 256" fill="none" xmlns="http://www.w3.org/2000/svg">
  <rect width="256" height="256" rx="56" fill="#082334"/>
  <path d="M128 38L200 63V118C200 163 171 203 128 218C85 203 56 163 56 118V63L128 38Z" fill="#123B55" stroke="#B4D5E8" stroke-width="8"/>
  <path d="M128 62L178 80V119C178 150 158 179 128 192C98 179 78 150 78 119V80L128 62Z" fill="#0B2D43" stroke="#80B5D4" stroke-width="4"/>
  <path d="M97 126L119 148L164 101" stroke="#D7EAF3" stroke-width="14" stroke-linecap="round" stroke-linejoin="round"/>
  <path d="M91 82C99 78 111 75 128 75C145 75 157 78 165 82" stroke="#4690BC" stroke-width="5" stroke-linecap="round"/>
  <text x="128" y="236" text-anchor="middle" font-family="Arial, sans-serif" font-size="18" font-weight="700" fill="#D7EAF3" letter-spacing="2">LUNAR</text>
</svg>
